<?xml version="1.0" encoding="utf-8"?>
<!-- Generator: Adobe Illustrator 14.0.0, SVG Export Plug-In . SVG Version: 6.00 Build 43363)  -->
<!DOCTYPE svg PUBLIC "-//W3C//DTD SVG 1.1//EN" "http://www.w3.org/Graphics/SVG/1.1/DTD/svg11.dtd">
<svg version="1.1" id="Layer_1" xmlns="http://www.w3.org/2000/svg" xmlns:xlink="http://www.w3.org/1999/xlink" x="0px" y="0px"
	 width="1440px" height="1728px" viewBox="0 0 1440 1728" enable-background="new 0 0 1440 1728" xml:space="preserve">
<path fill="none" stroke="#000000" d="M494.692,617.601"/>
<path fill="none" stroke="#000000" d="M551.103,456.062"/>
<line fill="none" stroke="#000000" x1="494.692" y1="674.011" x2="494.692" y2="1097.088"/>
<line fill="none" stroke="#000000" x1="494.692" y1="1097.088" x2="1002.385" y2="1097.088"/>
<path fill="none" stroke="#000000" d="M1002.385,674.011"/>
<path fill="none" stroke="#000000" d="M1002.385,1097.088"/>
<path fill="none" stroke="#000000" d="M951.104,456.062"/>
<path fill="none" stroke="#000000" d="M1002.385,674.011"/>
<path fill="none" stroke="#000000" d="M551.103,456.062"/>
<path fill="none" stroke="#000000" d="M951.104,456.062"/>
<path fill="none" stroke="#000000" d="M663.923,456.062c0,31.18,37.846,56.41,84.616,56.41"/>
<path fill="none" stroke="#000000" d="M835.719,456.062c0,31.18-38.993,56.41-87.18,56.41"/>
<line fill="none" stroke="#000000" x1="551.103" y1="456.062" x2="663.923" y2="456.062"/>
<line fill="none" stroke="#000000" x1="835.719" y1="456.062" x2="951.104" y2="456.062"/>
<path fill="none" stroke="#000000" d="M551.103,456.062c0,89.288-25.23,217.949-56.411,217.949"/>
<path fill="none" stroke="#000000" d="M951.104,456.062c0,89.288,22.936,217.949,51.281,217.949"/>
<line fill="none" stroke="#000000" x1="1002.385" y1="674.011" x2="1002.385" y2="1097.088"/>
</svg>
